<svg xmlns="http://www.w3.org/2000/svg" viewBox="0 0 128.43 128.24"><defs><style>.cls-1{fill:#c44536;}</style></defs><title>Asset 3</title><g id="Layer_2" data-name="Layer 2"><g id="Layer_4" data-name="Layer 4"><path class="cls-1" d="M42.82.17h-26C11,.17,4.5-1,1.2,5.15c-2.14,4-.77,10.1-.77,14.44v89.16c0,4.36-1.36,10.64.93,14.57,3.43,5.88,9.93,4.84,15.68,4.84H28.19L83.58.17ZM37,96.06,20.82,73.17h8.27L40.28,88.94ZM50.2,57.13a21.91,21.91,0,0,1-9.54,2,24.67,24.67,0,0,1-9.15-1.65,20.68,20.68,0,0,1-11.85-11.7A23.8,23.8,0,0,1,18,36.64a23.05,23.05,0,0,1,1.77-9.21,20.5,20.5,0,0,1,4.86-7A21.58,21.58,0,0,1,31.9,16,26,26,0,0,1,41,14.44a24.66,24.66,0,0,1,4.26.39A21.74,21.74,0,0,1,49.54,16a20.66,20.66,0,0,1,3.84,2,12.4,12.4,0,0,1,3.06,2.88l-5.76,4.56a9.69,9.69,0,0,0-4.38-3.33A14.71,14.71,0,0,0,35,22.3a14.06,14.06,0,0,0-4.65,3.3,14.64,14.64,0,0,0-3,4.92,17.4,17.4,0,0,0-1,6.12,18.92,18.92,0,0,0,1,6.36,14.34,14.34,0,0,0,2.91,5,13.06,13.06,0,0,0,4.53,3.21,14.82,14.82,0,0,0,5.94,1.14,13.13,13.13,0,0,0,6.06-1.35A11.85,11.85,0,0,0,51,47.38l6.06,4.26A19.4,19.4,0,0,1,50.2,57.13Z"/><path class="cls-1" d="M118.14,0c-4.21-.09-8.43.15-12.65.15H90.92l-54.68,128h81.9a10,10,0,0,0,10-10c.21-15.21.26-30.44.26-45.65V14.91c0-1.67-.23-3.27-.26-4.95A10.08,10.08,0,0,0,118.14,0Zm-12.71,100.1a17.51,17.51,0,0,1-1.41,6.93,15.67,15.67,0,0,1-3.65,5.25,16,16,0,0,1-5.42,3.33,20.28,20.28,0,0,1-13.58,0,16.18,16.18,0,0,1-5.43-3.33,14.55,14.55,0,0,1-3.41-5.25,17.83,17.83,0,0,1-1.1-6.93v-27h7V99.82a14.59,14.59,0,0,0,.57,3.69,9.12,9.12,0,0,0,1.63,3.27,8.27,8.27,0,0,0,3,2.34,11.89,11.89,0,0,0,9.08,0,8.22,8.22,0,0,0,2.94-2.34,8.82,8.82,0,0,0,1.46-3.27,14.34,14.34,0,0,0,.36-3.69V73.17h8Zm-5.77-42-4-9.81-18.42,0,2.6-6.52,13.19,0L86.52,24.59l3.45-9,18.31,42.56Z"/></g></g></svg>